<svg width="24" height="24" viewBox="0 0 24 24" fill="none" xmlns="http://www.w3.org/2000/svg">
<path d="M20.8603 8.36997L13.9303 2.82997C12.8603 1.96997 11.1303 1.96997 10.0703 2.81997L3.14027 8.36997C2.36027 8.98997 1.86027 10.3 2.03027 11.28L3.36027 19.24C3.60027 20.66 4.96027 21.81 6.40027 21.81H17.6003C19.0303 21.81 20.4003 20.65 20.6403 19.24L21.9703 11.28C22.1303 10.3 21.6303 8.98997 20.8603 8.36997ZM12.0003 15.5C10.6203 15.5 9.50027 14.38 9.50027 13C9.50027 11.62 10.6203 10.5 12.0003 10.5C13.3803 10.5 14.5003 11.62 14.5003 13C14.5003 14.38 13.3803 15.5 12.0003 15.5Z" fill="#134DB0"/>
</svg>
