<svg width="24" height="24" viewBox="0 0 24 24" fill="none" xmlns="http://www.w3.org/2000/svg">
<path fill-rule="evenodd" clip-rule="evenodd" d="M6.53478 13.1425C7.01578 13.7305 8.23978 15.909 8.49978 17H15.4998C15.7598 15.91 16.9823 13.7315 17.4633 13.144C18.2852 12.1413 18.8026 10.9241 18.9543 9.6365C19.1039 8.35136 18.8801 7.05033 18.3098 5.889C17.7343 4.71884 16.8391 3.7357 15.7278 3.0535C14.6071 2.36373 13.3167 1.99899 12.0008 2C10.6823 2 9.39029 2.365 8.27379 3.0525C7.16218 3.73442 6.26658 4.7174 5.69078 5.8875C5.12013 7.04838 4.89586 8.34904 5.04479 9.634C5.19429 10.9175 5.71078 12.134 6.53478 13.1425ZM12.4998 6L9.49978 10.5H11.4998V13.5L14.4998 9H12.4998V6Z" fill="#FFCC00"/>
<path d="M8.5 18.5C8.5 18.3674 8.55268 18.2402 8.64645 18.1464C8.74021 18.0527 8.86739 18 9 18H15C15.1326 18 15.2598 18.0527 15.3536 18.1464C15.4473 18.2402 15.5 18.3674 15.5 18.5C15.5 18.6326 15.4473 18.7598 15.3536 18.8536C15.2598 18.9473 15.1326 19 15 19H9C8.86739 19 8.74021 18.9473 8.64645 18.8536C8.55268 18.7598 8.5 18.6326 8.5 18.5ZM15.5 20H8.5V21C8.5 21.2652 8.60536 21.5196 8.79289 21.7071C8.98043 21.8946 9.23478 22 9.5 22H14.5C14.7652 22 15.0196 21.8946 15.2071 21.7071C15.3946 21.5196 15.5 21.2652 15.5 21V20Z" fill="#FFCC00"/>
</svg>
