<svg width="24" height="24" viewBox="0 0 24 24" fill="none" xmlns="http://www.w3.org/2000/svg">
<path d="M1.2002 5.09999C1.97843 4.51447 2.92629 4.19852 3.9002 4.19999H20.1002C21.113 4.19999 22.0478 4.53479 22.8002 5.09999C22.8002 4.74542 22.7304 4.39433 22.5947 4.06675C22.459 3.73917 22.2601 3.44152 22.0094 3.19081C21.7587 2.94009 21.461 2.74121 21.1334 2.60552C20.8059 2.46983 20.4548 2.39999 20.1002 2.39999H3.9002C3.18411 2.39999 2.49736 2.68446 1.99101 3.19081C1.48466 3.69715 1.2002 4.38391 1.2002 5.09999ZM1.2002 8.69999C1.97843 8.11447 2.92629 7.79852 3.9002 7.79999H20.1002C21.113 7.79999 22.0478 8.13479 22.8002 8.69999C22.8002 8.34543 22.7304 7.99433 22.5947 7.66675C22.459 7.33917 22.2601 7.04152 22.0094 6.79081C21.7587 6.54009 21.461 6.34121 21.1334 6.20552C20.8059 6.06983 20.4548 5.99999 20.1002 5.99999H3.9002C3.18411 5.99999 2.49736 6.28446 1.99101 6.79081C1.48466 7.29715 1.2002 7.98391 1.2002 8.69999ZM8.4002 9.59999C8.71846 9.59999 9.02368 9.72642 9.24872 9.95147C9.47377 10.1765 9.6002 10.4817 9.6002 10.8C9.6002 11.4365 9.85305 12.047 10.3031 12.4971C10.7532 12.9471 11.3637 13.2 12.0002 13.2C12.6367 13.2 13.2472 12.9471 13.6973 12.4971C14.1473 12.047 14.4002 11.4365 14.4002 10.8C14.4002 10.4817 14.5266 10.1765 14.7517 9.95147C14.9767 9.72642 15.2819 9.59999 15.6002 9.59999H20.1002C20.4548 9.59999 20.8059 9.66983 21.1334 9.80552C21.461 9.94121 21.7587 10.1401 22.0094 10.3908C22.2601 10.6415 22.459 10.9392 22.5947 11.2667C22.7304 11.5943 22.8002 11.9454 22.8002 12.3V18.9C22.8002 19.2546 22.7304 19.6057 22.5947 19.9332C22.459 20.2608 22.2601 20.5585 22.0094 20.8092C21.7587 21.0599 21.461 21.2588 21.1334 21.3945C20.8059 21.5302 20.4548 21.6 20.1002 21.6H3.9002C3.18411 21.6 2.49736 21.3155 1.99101 20.8092C1.48466 20.3028 1.2002 19.6161 1.2002 18.9V12.3C1.2002 11.5839 1.48466 10.8972 1.99101 10.3908C2.49736 9.88446 3.18411 9.59999 3.9002 9.59999H8.4002Z" fill="#1CA75C"/>
</svg>
