<svg width="24" height="24" viewBox="0 0 24 24" fill="none" xmlns="http://www.w3.org/2000/svg">
<path fill-rule="evenodd" clip-rule="evenodd" d="M16.5134 21.5H8.16555C5.09919 21.5 2.74679 20.3924 3.41498 15.9348L4.19301 9.89357C4.60491 7.66931 6.02367 6.81805 7.26852 6.81805H17.447C18.7102 6.81805 20.0466 7.73339 20.5225 9.89357L21.3006 15.9348C21.8681 19.889 19.5797 21.5 16.5134 21.5Z" stroke="#5997FF" stroke-width="1.5" stroke-linecap="round" stroke-linejoin="round"/>
<path d="M16.6502 6.5984C16.6502 4.21232 14.716 2.27799 12.3299 2.27799C11.1809 2.27316 10.0773 2.72619 9.26308 3.53695C8.44889 4.3477 7.99121 5.44939 7.99121 6.5984" stroke="#5997FF" stroke-width="1.5" stroke-linecap="round" stroke-linejoin="round"/>
<path d="M15.2958 11.1018H15.25" stroke="#5997FF" stroke-width="1.5" stroke-linecap="round" stroke-linejoin="round"/>
<path d="M9.46569 11.1018H9.41992" stroke="#5997FF" stroke-width="1.5" stroke-linecap="round" stroke-linejoin="round"/>
</svg>
