<svg width="24" height="24" viewBox="0 0 24 24" fill="none" xmlns="http://www.w3.org/2000/svg">
<g clip-path="url(#clip0_6223_3189)">
<path d="M4.5293 3.02943C3.60104 3.02943 2.7108 3.38765 2.05442 4.02527C1.39805 4.66289 1.0293 5.5277 1.0293 6.42943V13.2294C1.0293 14.1312 1.39805 14.996 2.05442 15.6336C2.7108 16.2712 3.60104 16.6294 4.5293 16.6294H18.5293C19.4576 16.6294 20.3478 16.2712 21.0042 15.6336C21.6605 14.996 22.0293 14.1312 22.0293 13.2294V6.42943C22.0293 5.5277 21.6605 4.66289 21.0042 4.02527C20.3478 3.38765 19.4576 3.02943 18.5293 3.02943H4.5293ZM4.5293 19.1794C4.5293 18.954 4.62148 18.7378 4.78558 18.5784C4.94967 18.419 5.17223 18.3294 5.4043 18.3294H17.6543C17.8864 18.3294 18.1089 18.419 18.273 18.5784C18.4371 18.7378 18.5293 18.954 18.5293 19.1794C18.5293 19.4049 18.4371 19.6211 18.273 19.7805C18.1089 19.9399 17.8864 20.0294 17.6543 20.0294H5.4043C5.17223 20.0294 4.94967 19.9399 4.78558 19.7805C4.62148 19.6211 4.5293 19.4049 4.5293 19.1794Z" fill="#A46043"/>
</g>
<defs>
<clipPath id="clip0_6223_3189">
<rect width="24" height="24" fill="white"/>
</clipPath>
</defs>
</svg>
