<svg width="24" height="24" viewBox="0 0 24 24" fill="none" xmlns="http://www.w3.org/2000/svg">
<mask id="mask0_6122_2704" style="mask-type:luminance" maskUnits="userSpaceOnUse" x="0" y="3" width="24" height="18">
<path d="M9.212 5.269C9.39708 5.09623 9.64081 5.0001 9.894 5H21C21.2652 5 21.5196 5.10536 21.7071 5.29289C21.8946 5.48043 22 5.73478 22 6V18C22 18.2652 21.8946 18.5196 21.7071 18.7071C21.5196 18.8946 21.2652 19 21 19H9.894C9.64081 18.9999 9.39708 18.9038 9.212 18.731L2 12L9.212 5.269Z" fill="white" stroke="white" stroke-width="4" stroke-linecap="round" stroke-linejoin="round"/>
<path d="M18 9.5L13 14.5M13 9.5L18 14.5" stroke="black" stroke-width="4" stroke-linecap="round" stroke-linejoin="round"/>
</mask>
<g mask="url(#mask0_6122_2704)">
<path d="M0 0H24V24H0V0Z" fill="#CFCFCF"/>
</g>
</svg>
