<svg width="24" height="24" viewBox="0 0 24 24" fill="none" xmlns="http://www.w3.org/2000/svg">
<path d="M22.6791 1.52109C22.5016 1.47888 22.3149 1.50166 22.1527 1.58531L21.0001 2.16094L19.8376 1.57969C19.7334 1.52762 19.6186 1.50052 19.5022 1.50052C19.3857 1.50052 19.2709 1.52762 19.1668 1.57969L17.9897 2.1614L16.8282 1.57969C16.7237 1.52724 16.6085 1.49993 16.4916 1.49993C16.3748 1.49993 16.2595 1.52724 16.1551 1.57969L15.0001 2.15953L13.854 1.58109C13.7498 1.52829 13.6348 1.50053 13.518 1.50005C13.4012 1.49956 13.2859 1.52635 13.1813 1.57828L12.0001 2.16187L10.8376 1.57922C10.7332 1.52718 10.6183 1.50009 10.5017 1.50009C10.3851 1.50009 10.2702 1.52718 10.1658 1.57922L9.00006 2.16094L7.83569 1.57922C7.68558 1.50397 7.51456 1.48128 7.35003 1.51476C7.18549 1.54825 7.03695 1.63598 6.92819 1.7639C6.81096 1.90362 6.74776 2.08076 6.75006 2.26312V13.5L6.7524 13.5023H15.7501C16.1479 13.5023 16.5294 13.6604 16.8107 13.9417C17.092 14.223 17.2501 14.6045 17.2501 15.0023V19.875C17.2501 21.3248 18.8002 22.5 20.2501 22.5H20.8126C21.459 22.5 22.079 22.2432 22.5361 21.7861C22.9933 21.329 23.2501 20.709 23.2501 20.0625V2.25C23.2502 2.08213 23.194 1.91908 23.0905 1.78693C22.987 1.65477 22.8421 1.56117 22.6791 1.52109ZM19.5001 11.25H13.5235C13.1185 11.25 12.7688 10.9387 12.751 10.5337C12.7464 10.4325 12.7624 10.3314 12.798 10.2366C12.8336 10.1417 12.888 10.055 12.958 9.9818C13.028 9.90856 13.1122 9.85025 13.2053 9.81041C13.2985 9.77057 13.3987 9.75002 13.5001 9.75H19.4766C19.8816 9.75 20.2313 10.0612 20.2491 10.4662C20.2537 10.5675 20.2377 10.6686 20.2021 10.7634C20.1665 10.8583 20.1121 10.9449 20.0421 11.0182C19.9721 11.0914 19.888 11.1497 19.7948 11.1896C19.7016 11.2294 19.6014 11.25 19.5001 11.25ZM19.5001 7.5H10.5235C10.1185 7.5 9.76881 7.18875 9.751 6.78375C9.74644 6.68253 9.76243 6.58144 9.79802 6.48658C9.83361 6.39172 9.88804 6.30505 9.95805 6.2318C10.028 6.15856 10.1122 6.10025 10.2053 6.06041C10.2985 6.02057 10.3987 6.00002 10.5001 6H19.4766C19.8816 6 20.2313 6.31125 20.2491 6.71625C20.2537 6.81746 20.2377 6.91855 20.2021 7.01342C20.1665 7.10828 20.1121 7.19495 20.0421 7.26819C19.9721 7.34144 19.888 7.39974 19.7948 7.43958C19.7016 7.47942 19.6014 7.49997 19.5001 7.5Z" fill="#FF3B30"/>
<path d="M15.75 19.875V15.75C15.75 15.5511 15.671 15.3603 15.5303 15.2197C15.3897 15.079 15.1989 15 15 15H2.25C1.85215 15.0012 1.47098 15.16 1.18988 15.4415C0.908777 15.7231 0.750618 16.1045 0.75 16.5023C0.75 18.8719 1.02094 19.8572 1.42781 20.6072C2.11828 21.8808 3.36844 22.5 5.25 22.5H16.7663C16.8032 22.5 16.8394 22.4891 16.8702 22.4686C16.901 22.4481 16.9251 22.419 16.9394 22.3849C16.9536 22.3508 16.9575 22.3132 16.9505 22.2769C16.9435 22.2405 16.9258 22.2071 16.8998 22.1808C16.4564 21.7359 15.75 21.1406 15.75 19.875Z" fill="#FF3B30"/>
</svg>
